nColumns=19
nRows=27
DataType=double
version=2
endheader
time	ground_force_1_vx	ground_force_1_vy	ground_force_1_vz	ground_force_1_px	ground_force_1_py	ground_force_1_pz	ground_moment_1_mx	ground_moment_1_my	ground_moment_1_mz	ground_force_2_vx	ground_force_2_vy	ground_force_2_vz	ground_force_2_px	ground_force_2_py	ground_force_2_pz	ground_moment_2_mx	ground_moment_2_my	ground_moment_2_mz
1.46	-2.437235006258114	681.5724234700208	-2.167076694275594	0.3467775449607571	0.004337469197608378	0.1419814996990734	0.0409951670067012	4.895417735283439	0.01867442045849403	0	0	0	0.8952113342285156	0.002086591646075249	0.2021185622215271	0	0	0
1.461	-2.111932114417959	681.6171834715988	-1.846219238067472	0.3468029740583696	0.004337246993810508	0.1419839260292281	0.04108291647999636	4.90589629554301	0.01871439274496032	0	0	0	0.8952113342285156	0.002086591646075249	0.2021185622215271	0	0	0
1.462	-1.786628745767631	681.6619434691959	-1.52536178500384	0.3468283993415008	0.004337024821859876	0.1419863523845387	0.04117066595329151	4.91637485580258	0.0187543650314266	0	0	0	0.8952113342285156	0.002086591646075249	0.2021185622215271	0	0	0
1.463	-1.461325341264423	681.7067645024237	-1.204503857564719	0.3468538284391133	0.004336802618062008	0.1419887787146935	0.04125841542658667	4.926853416062151	0.01879433731789289	0	0	0	0.8952113342285156	0.002086591646075249	0.2021185622215271	0	0	0
1.464	-1.136021971049511	681.7515244990982	-0.8836461660894264	0.3468792575367258	0.004336580414264138	0.1419912050448482	0.04134616898866954	4.937332464582299	0.01883431146691388	0	0	0	0.8952113342285156	0.002086591646075249	0.2021185622215271	0	0	0
1.465	-0.8107358489238194	681.796284687981	-0.5628009972305126	0.3469046828198569	0.004336358242313507	0.1419936314001587	0.04143391028438925	4.947810048320714	0.01887428002827076	0	0	0	0.8952113342285156	0.002086591646075249	0.2021185622215271	0	0	0
1.466	-0.9180052809146604	681.8363659914653	-0.5619567201024736	0.3468053993855375	0.004337142881308625	0.1420058944483713	0.0413587174781874	4.938830936295482	0.01884002764729527	0	0	0	0.8952113342285156	0.002086591646075249	0.2021185622215271	0	0	0
1.467	-1.025274680181793	681.876508332425	-0.561112445422268	0.3467061159512181	0.004337927520303745	0.1420181574965838	0.041283532849561	4.929852800791406	0.01880577899142918	0	0	0	0.8952113342285156	0.002086591646075249	0.2021185622215271	0	0	0
1.468	-1.132544588982805	681.9165896398899	-0.5602681651497385	0.3466068287024173	0.0043387121911461	0.1420304205699522	0.04120834004335915	4.920873688766173	0.01877152661045369	0	0	0	0.8952113342285156	0.002086591646075249	0.2021185622215271	0	0	0
1.469	-1.239813511439764	681.9567319768689	-0.5594238936140226	0.3465075452680978	0.004339496830141221	0.1420426836181646	0.0411331472371573	4.911894576740941	0.0187372742294782	0	0	0	0.8952113342285156	0.002086591646075249	0.2021185622215271	0	0	0
1.47	-1.347085347821077	681.9968133122508	-0.5585827001151213	0.3464082694377078	0.004340281420202902	0.1420549428014787	0.04105796669731861	4.902916929497443	0.01870302743616682	0	0	0	0.8952113342285156	0.002086591646075249	0.2021185622215271	0	0	0
1.471	-1.562519265294658	682.0529179267322	-0.6645432161773042	0.3464907429156369	0.00433962798943922	0.1420451862763739	0.04114899946715429	4.913787563000965	0.01874449535405906	0	0	0	0.8952113342285156	0.002086591646075249	0.2021185622215271	0	0	0
1.472	-1.777953184332825	682.1090225421361	-0.7705039706511476	0.3465732164185995	0.004338974543914503	0.1420354335658555	0.04124004041456539	4.924659173025642	0.01878596699706071	0	0	0	0.8952113342285156	0.002086591646075249	0.2021185622215271	0	0	0
1.473	-1.993386624996234	682.1651271526366	-0.8764644898578196	0.3466556860820472	0.004338321144998058	0.1420256770659066	0.04133107727318879	4.935530294789742	0.01882743677750765	0	0	0	0.8952113342285156	0.002086591646075249	0.2021185622215271	0	0	0
1.474	-2.208820544034401	682.2212317680406	-0.982425244331663	0.3467381595850098	0.004337667699473339	0.1420159243553883	0.04142211413181218	4.946401416553841	0.01886890655795459	0	0	0	0.8952113342285156	0.002086591646075249	0.2021185622215271	0	0	0
1.475	-2.424254978997378	682.2773364104897	-1.088391955952527	0.3468206292484575	0.004337014300556895	0.1420061678554393	0.0415131387240724	4.957271073536208	0.01891037075073743	0	0	0	0.8952113342285156	0.002086591646075249	0.2021185622215271	0	0	0
1.476	-2.642040027792874	682.2257581662069	-1.409981624581361	0.3468016978327101	0.004337097052835622	0.1420260340450298	0.04103000347808998	4.899577715406059	0.01869028942455771	0	0	0	0.8952113342285156	0.002086591646075249	0.2021185622215271	0	0	0
1.477	-2.859825075023784	682.1741799210016	-1.731571054798536	0.3467827663919295	0.004337179819875385	0.1420458964200337	0.04054686414331984	4.841883869015332	0.0184702062358233	0	0	0	0.8952113342285156	0.002086591646075249	0.2021185622215271	0	0	0
1.478	-3.077610633353161	682.1225406432241	-2.053160717835047	0.3467638349511488	0.004337262586915148	0.1420657587950376	0.04006372889733741	4.784190510885183	0.01825012490964358	0	0	0	0.8952113342285156	0.002086591646075249	0.2021185622215271	0	0	0
1.479	-3.295395683713244	682.0709623998638	-2.374750624875542	0.3467449073498827	0.004337345307346639	0.1420856249594721	0.03958058956256727	4.726496664494455	0.01803004172090917	0	0	0	0.8952113342285156	0.002086591646075249	0.2021185622215271	0	0	0
1.48	-3.513177794983016	682.0193840864899	-2.696328630199954	0.3467259758840687	0.004337428089147439	0.1421054835198894	0.03909747476052346	4.668805747667196	0.01780996970750296	0	0	0	0.8952113342285156	0.002086591646075249	0.2021185622215271	0	0	0
1.481	-3.727582258705417	682.0291257255087	-2.587277223625309	0.3467168567011855	0.004337483547083196	0.1421109644215976	0.039295830030478	4.692492244816084	0.01790032596122145	0	0	0	0.8952113342285156	0.002086591646075249	0.2021185622215271	0	0	0
1.482	-3.941985771936642	682.0388673584107	-2.478226300162963	0.3467077413327838	0.004337538973171717	0.1421164452981498	0.03949418530043255	4.716178741964971	0.01799068221493994	0	0	0	0.8952113342285156	0.002086591646075249	0.2021185622215271	0	0	0
1.483	-4.156389282038699	682.0486089894678	-2.369174899877294	0.346698625964382	0.004337594399260238	0.142121926174702	0.0396925405703871	4.73986523911386	0.01808103846865843	0	0	0	0.8952113342285156	0.002086591646075249	0.2021185622215271	0	0	0
1.484	-4.370792795269927	682.0583506223697	-2.260123976414948	0.3466895105959802	0.004337649825348758	0.1421274070512542	0.03989089584034164	4.763551736262749	0.01817139472237691	0	0	0	0.8952113342285156	0.002086591646075249	0.2021185622215271	0	0	0
1.485	-4.585181988550141	682.0680921266191	-2.151070763170682	0.3466803914130971	0.004337705283284515	0.1421328879529623	0.0400892511102962	4.787238233411637	0.0182617509760954	0	0	0	0.8952113342285156	0.002086591646075249	0.2021185622215271	0	0	0
1.486	-4.043817655086069	682.2992690550261	-1.938516049696916	0.3466622316244042	0.004337816430787288	0.1421436165383238	0.0402761168867528	4.809552718336985	0.0183468734511004	0	0	0	0.8952113342285156	0.002086591646075249	0.2021185622215271	0	0	0
